<svg width="100" height="22" viewBox="0 0 100 22" fill="none" xmlns="http://www.w3.org/2000/svg">
<g clip-path="url(#clip0_4712_468)">
<path d="M30.4892 6.24921V9.85991H37.7124V13.4472H30.4892V19.0743H25.8608V2.66195H38.6941V6.24921H30.4892Z" fill="#0E0F12"/>
<path d="M48.4091 19.4025C45.9781 19.4025 44.0846 18.7382 42.7288 17.4095C41.3886 16.0809 40.7185 14.1975 40.7185 11.7591V2.66195H45.3469V11.6184C45.3469 14.2444 46.3832 15.5573 48.4558 15.5573C50.5129 15.5573 51.5414 14.2444 51.5414 11.6184V2.66195H56.0997V11.7591C56.0997 14.1975 55.4218 16.0809 54.066 17.4095C52.7258 18.7382 50.8402 19.4025 48.4091 19.4025Z" fill="#0E0F12"/>
<path d="M66.3881 14.7133H63.8635V19.0743H59.2352V2.66195H66.7154C68.1958 2.66195 69.4815 2.91205 70.5724 3.41223C71.6632 3.89678 72.5048 4.60017 73.0969 5.52238C73.6891 6.42896 73.9852 7.49967 73.9852 8.7345C73.9852 9.92244 73.7047 10.9619 73.1437 11.8528C72.5982 12.7282 71.8112 13.4159 70.7828 13.9161L74.3125 19.0743H69.3568L66.3881 14.7133ZM69.3101 8.7345C69.3101 7.9686 69.0685 7.37463 68.5855 6.95259C68.1023 6.53056 67.3855 6.31955 66.4349 6.31955H63.8635V11.126H66.4349C67.3855 11.126 68.1023 10.9228 68.5855 10.5164C69.0685 10.0944 69.3101 9.50041 69.3101 8.7345Z" fill="#0E0F12"/>
<path d="M92.1068 2.66195V19.0743H88.2966L81.0735 10.3288V19.0743H76.5386V2.66195H80.3488L87.572 11.4074V2.66195H92.1068Z" fill="#0E0F12"/>
<path d="M95.3716 2.66195H100V19.0743H95.3716V2.66195Z" fill="#0E0F12"/>
<path d="M13.415 1.37917H5.76923C2.58297 1.37917 0 3.96993 0 7.16579V14.8346C0 18.0305 2.58297 20.6212 5.76923 20.6212H13.415C16.6013 20.6212 19.1842 18.0305 19.1842 14.8346V7.16579C19.1842 3.96993 16.6013 1.37917 13.415 1.37917Z" fill="#CE1A30"/>
<path fill-rule="evenodd" clip-rule="evenodd" d="M11.9522 8.1046C11.1896 7.55055 10.3779 6.86302 9.5449 5.96604C8.67231 5.02669 7.78596 4.43915 6.94336 4.15323C6.91785 4.14457 6.89251 4.13692 6.86688 4.12885C3.58331 3.08216 0.998783 6.61673 2.59473 11.7181C2.99223 12.9883 3.55999 13.9459 4.42062 14.6695C4.53631 14.7667 4.6445 14.8528 4.74588 14.9293L3.9217 16.702C3.76148 17.0467 3.91013 17.4564 4.25373 17.6171C4.59734 17.7778 5.00578 17.6287 5.166 17.2841L5.95229 15.5927C5.98399 15.6049 6.01439 15.6168 6.04369 15.6289C6.36115 15.7601 6.70347 15.8778 7.0726 15.9838C7.09794 15.991 7.12327 15.9983 7.14903 16.0054C7.89408 16.214 8.74709 16.3756 9.72767 16.5006C10.5764 16.6088 11.3695 16.6195 12.0986 16.5517C12.1239 16.5496 12.1491 16.547 12.1746 16.5445C12.8026 16.481 13.3819 16.3587 13.9045 16.188C13.9045 16.188 14.0486 16.1543 14.2838 16.064L14.851 17.2841C15.0112 17.6287 15.4197 17.7778 15.7633 17.6171C16.1069 17.4564 16.2556 17.0467 16.0954 16.702L15.4946 15.4098C15.5323 15.3831 15.5703 15.3555 15.6084 15.327C16.5122 14.6531 17.0271 13.7749 17.0494 12.854C17.1091 10.4071 14.8546 10.1879 11.9522 8.1046ZM12.0709 14.9303C13.6793 14.8445 14.8451 14.3895 14.9116 13.7285C14.983 13.0195 13.7667 12.2885 12.0181 11.8964C11.5813 11.7986 11.1118 11.7218 10.62 11.672C9.21086 11.5292 7.93128 11.6383 7.07843 11.924C6.44283 12.1368 6.04347 12.4475 6.00525 12.826C5.96199 13.2539 6.38801 13.6892 7.11548 14.0535C7.89582 14.4444 9.0238 14.7535 10.2966 14.8824C10.9226 14.9461 11.5224 14.9596 12.0709 14.9303Z" fill="white"/>
</g>
<defs>
<clipPath id="clip0_4712_468">
<rect width="100" height="20.2532" fill="white" transform="translate(0 0.873413)"/>
</clipPath>
</defs>
</svg>
