<svg width="40" height="40" viewBox="0 0 40 40" fill="none" xmlns="http://www.w3.org/2000/svg">
<path d="M11.25 36.25V32.5" stroke="#262830" stroke-width="2.5" stroke-linecap="round" stroke-linejoin="round"/>
<path d="M29.375 36.25V32.5" stroke="#262830" stroke-width="2.5" stroke-linecap="round" stroke-linejoin="round"/>
<path d="M7.13541 17.5C8.87434 17.5 10.3071 18.8446 10.499 20.5755C10.5281 20.8382 10.5445 21.1031 10.5916 21.3631C10.9728 23.4689 12.8061 25 14.9459 25H25.0541C27.1939 25 29.0272 23.4689 29.4084 21.3631C29.4555 21.1031 29.4719 20.8382 29.501 20.5755C29.693 18.8446 31.1256 17.5 32.8646 17.5C34.7343 17.5 36.25 19.0545 36.25 20.9722C36.25 23.2069 34.9422 25.2652 33.9524 27.654C32.8952 30.2051 30.626 32.5 27.8646 32.5H12.1354C9.374 32.5 7.10479 30.2051 6.04761 27.654C5.05771 25.2652 3.75 23.2069 3.75 20.9722C3.75 19.0545 5.2657 17.5 7.13541 17.5Z" stroke="#262830" stroke-width="2.5"/>
<path d="M32.5 17.5V8.75C32.5 5.98857 30.2614 3.75 27.5 3.75L12.5 3.75003C9.73857 3.75003 7.5 5.9886 7.5 8.75003V17.5" stroke="#262830" stroke-width="2.5" stroke-linecap="round" stroke-linejoin="round"/>
</svg>
