<svg width="41" height="40" viewBox="0 0 41 40" fill="none" xmlns="http://www.w3.org/2000/svg">
<path d="M36.75 15H4.25M13 8.75V3.75M28 8.75V3.75M11.75 22.5H14.25M19.25 22.5H21.75M26.75 22.5H29.25M11.75 28.75H14.25M19.25 28.75H21.75M26.75 28.75H29.25M4.25 11.25V31.25C4.25 34.0114 6.48857 36.25 9.25 36.25H31.75C34.5114 36.25 36.75 34.0114 36.75 31.25V11.2501C36.75 8.48864 34.5114 6.25006 31.75 6.25005L9.25001 6.25001C6.48859 6.25 4.25 8.48857 4.25 11.25Z" stroke="#262830" stroke-width="2.5" stroke-linecap="round"/>
</svg>
