<svg width="40" height="40" viewBox="0 0 40 40" fill="none" xmlns="http://www.w3.org/2000/svg">
<path d="M4.72937 6.37891C4.03902 6.37891 3.47937 6.93854 3.47937 7.62891C3.47937 8.31926 4.03902 8.87891 4.72937 8.87891V6.37891ZM26.3789 13.8144V12.5644C25.6885 12.5644 25.1289 13.1242 25.1289 13.8144H26.3789ZM5.97938 26.1855C5.97938 25.4953 5.41974 24.9355 4.72937 24.9355C4.03902 24.9355 3.47937 25.4953 3.47937 26.1855H5.97938ZM1.25 12.5644C0.559644 12.5644 0 13.1242 0 13.8144C0 14.5048 0.559644 15.0644 1.25 15.0644V12.5644ZM7.43556 15.0644C8.12593 15.0644 8.68556 14.5048 8.68556 13.8144C8.68556 13.1242 8.12593 12.5644 7.43556 12.5644V15.0644ZM1.25 18.75C0.559644 18.75 0 19.3097 0 20C0 20.6904 0.559644 21.25 1.25 21.25V18.75ZM10.5283 21.25C11.2187 21.25 11.7783 20.6904 11.7783 20C11.7783 19.3097 11.2187 18.75 10.5283 18.75V21.25ZM4.72937 8.87891H23.2861V6.37891H4.72937V8.87891ZM25.1289 10.7217V29.2784H27.6289V10.7217H25.1289ZM26.3789 15.0644H32.5644V12.5644H26.3789V15.0644ZM37.5 20V26.1855H40V20H37.5ZM27.6289 29.2784V13.8144H25.1289V29.2784H27.6289ZM33.8675 30.5814C33.1479 31.301 31.981 31.301 31.2614 30.5814L29.4936 32.3492C31.1896 34.0452 33.9393 34.0452 35.6353 32.3492L33.8675 30.5814ZM31.2614 27.9753C31.981 27.2557 33.1479 27.2557 33.8675 27.9753L35.6353 26.2075C33.9393 24.5115 31.1896 24.5115 29.4936 26.2075L31.2614 27.9753ZM13.7644 30.5814C13.0448 31.301 11.8779 31.301 11.1583 30.5814L9.39052 32.3492C11.0865 34.0452 13.8363 34.0452 15.5321 32.3492L13.7644 30.5814ZM11.1583 27.9753C11.8779 27.2557 13.0448 27.2557 13.7644 27.9753L15.5321 26.2075C13.8363 24.5115 11.0865 24.5115 9.39052 26.2075L11.1583 27.9753ZM33.8675 27.9753C34.2275 28.3354 34.4072 28.8048 34.4072 29.2784H36.9072C36.9072 28.1689 36.483 27.0553 35.6353 26.2075L33.8675 27.9753ZM34.4072 29.2784C34.4072 29.7519 34.2275 30.2213 33.8675 30.5814L35.6353 32.3492C36.483 31.5014 36.9072 30.3879 36.9072 29.2784H34.4072ZM29.4716 28.0284H26.3789V30.5284H29.4716V28.0284ZM31.2614 30.5814C30.9014 30.2213 30.7216 29.7519 30.7216 29.2784H28.2216C28.2216 30.3879 28.6459 31.5014 29.4936 32.3492L31.2614 30.5814ZM30.7216 29.2784C30.7216 28.8048 30.9014 28.3354 31.2614 27.9753L29.4936 26.2075C28.6459 27.0553 28.2216 28.1689 28.2216 29.2784H30.7216ZM11.1583 30.5814C10.7982 30.2213 10.6185 29.7519 10.6185 29.2784H8.11855C8.11855 30.3878 8.54279 31.5014 9.39052 32.3492L11.1583 30.5814ZM10.6185 29.2784C10.6185 28.8048 10.7982 28.3354 11.1583 27.9753L9.39052 26.2075C8.54279 27.0553 8.11855 28.1689 8.11855 29.2784H10.6185ZM9.36855 28.0284H7.77577V30.5284H9.36855V28.0284ZM26.3789 28.0284H15.5541V30.5284H26.3789V28.0284ZM13.7644 27.9753C14.1245 28.3354 14.3041 28.8048 14.3041 29.2784H16.8041C16.8041 28.1689 16.3799 27.0553 15.5321 26.2075L13.7644 27.9753ZM14.3041 29.2784C14.3041 29.7519 14.1245 30.2213 13.7644 30.5814L15.5321 32.3492C16.3799 31.5014 16.8041 30.3878 16.8041 29.2784H14.3041ZM5.97938 26.232V26.1855H3.47937V26.232H5.97938ZM32.5644 15.0644C35.2902 15.0644 37.5 17.2742 37.5 20H40C40 15.8935 36.671 12.5644 32.5644 12.5644V15.0644ZM7.77577 28.0284C6.78365 28.0284 5.97938 27.224 5.97938 26.232H3.47937C3.47937 28.6048 5.40294 30.5284 7.77577 30.5284V28.0284ZM37.5 26.1855C37.5 27.2033 36.675 28.0284 35.6572 28.0284V30.5284C38.0556 30.5284 40 28.584 40 26.1855H37.5ZM23.2861 8.87891C24.3039 8.87891 25.1289 9.70394 25.1289 10.7217H27.6289C27.6289 8.32323 25.6845 6.37891 23.2861 6.37891V8.87891ZM1.25 15.0644H7.43556V12.5644H1.25V15.0644ZM1.25 21.25H10.5283V18.75H1.25V21.25Z" fill="#262830"/>
</svg>
