<svg width="20" height="20" viewBox="0 0 20 20" fill="none" xmlns="http://www.w3.org/2000/svg">
<path d="M18.0141 0.929688C17.7582 0.929688 17.4906 1.0157 17.2953 1.2107L14.1391 4.39868L12.0141 2.27368V7.92969H17.6703L15.5453 5.80469L18.7329 2.64868C19.1234 2.25768 19.1234 1.6017 18.7329 1.2107C18.5376 1.0157 18.27 0.929688 18.0141 0.929688ZM3.95166 1.92969C2.26416 1.92969 0.0141602 4.17968 0.0141602 5.86768C0.0141602 8.04168 2.26416 12.0547 4.51416 14.3047C4.75626 14.5467 5.39706 15.1877 5.63916 15.4297C7.88916 17.6797 11.902 19.9297 14.0766 19.9297C15.7641 19.9297 18.0141 17.6797 18.0141 15.9917C18.0141 14.3047 15.7641 12.0547 14.0766 12.0547C13.5141 12.0547 11.4786 13.2187 11.2641 13.1797C9.47052 12.8557 7.13866 10.4667 6.76416 8.67968C6.71186 8.43068 7.88916 6.42968 7.88916 5.86768C7.88916 4.17968 5.63916 1.92969 3.95166 1.92969Z" fill="#CE1A30"/>
</svg>
