<svg width="41" height="40" viewBox="0 0 41 40" fill="none" xmlns="http://www.w3.org/2000/svg">
<path d="M18.4115 3.41827C19.5521 2.23427 21.4478 2.23427 22.5885 3.41827L25.7737 6.72457C26.2552 7.22449 26.9002 7.53506 27.5913 7.5999L32.1622 8.02874C33.7991 8.1823 34.9811 9.66446 34.7665 11.2944L34.1675 15.8462C34.0768 16.5343 34.2362 17.2322 34.6163 17.813L37.1311 21.6541C38.0316 23.0296 37.6097 24.8778 36.2016 25.7263L32.2693 28.096C31.6748 28.4542 31.2286 29.0138 31.0116 29.6732L29.5763 34.0341C29.0623 35.5957 27.3543 36.4184 25.813 35.8465L21.5087 34.2496C20.8578 34.0081 20.1421 34.0081 19.4912 34.2496L15.187 35.8465C13.6456 36.4184 11.9375 35.5957 11.4236 34.0341L9.9884 29.6732C9.7714 29.0138 9.3251 28.4542 8.73056 28.096L4.79838 25.7263C3.39025 24.8778 2.96841 23.0296 3.86891 21.6541L6.38355 17.813C6.76375 17.2322 6.92303 16.5343 6.83246 15.8462L6.23342 11.2944C6.0189 9.66446 7.20088 8.1823 8.83775 8.02874L13.4086 7.5999C14.0997 7.53506 14.7447 7.22449 15.2262 6.72457L18.4115 3.41827Z" stroke="#262830" stroke-width="2.5" stroke-linecap="round" stroke-linejoin="round"/>
<path d="M15.5 20.5207L19.25 23.75L25.5 16.25" stroke="#262830" stroke-width="2.5" stroke-linecap="round" stroke-linejoin="round"/>
</svg>
