<svg width="20" height="21" viewBox="0 0 20 21" fill="none" xmlns="http://www.w3.org/2000/svg">
<path d="M9.9989 0.953125C4.4759 0.953125 -0.00109863 5.43034 -0.00109863 10.9531C-0.00109863 12.3871 0.328911 13.7687 0.904911 15.0469C0.0849114 19.2819 0.0299114 19.7656 0.0299114 19.7656C-0.104089 20.4592 0.491901 21.0532 1.1869 20.9219C1.1869 20.9219 1.62791 20.825 5.90491 20.0156C7.18291 20.5915 8.5649 20.9531 9.9989 20.9531C15.5219 20.9531 19.9989 16.4759 19.9989 10.9531C19.9989 5.43034 15.5219 0.953125 9.9989 0.953125ZM7.18689 5.95313C8.1239 5.95313 9.3739 7.20313 9.3739 8.14063C9.3739 8.45313 8.7199 9.5645 8.7489 9.7031C8.9569 10.6959 10.2529 12.0233 11.2489 12.2031C11.3679 12.2246 12.4989 11.5781 12.8109 11.5781C13.7489 11.5781 14.9989 12.8281 14.9989 13.7656C14.9989 14.7031 13.7489 15.9531 12.8109 15.9531C11.6029 15.9531 9.3739 14.7031 8.1239 13.4531C7.9889 13.3186 7.6339 12.9626 7.4989 12.8281C6.2489 11.5781 4.9989 9.3488 4.9989 8.14063C4.9989 7.20313 6.24889 5.95313 7.18689 5.95313Z" fill="#CE1A30"/>
</svg>
