<svg width="25" height="26" viewBox="0 0 25 26" fill="none" xmlns="http://www.w3.org/2000/svg">
<g clip-path="url(#clip0_4718_2825)">
<path fill-rule="evenodd" clip-rule="evenodd" d="M12.5 25.2529C19.4035 25.2529 25 19.6565 25 12.7529C25 5.84938 19.4035 0.25293 12.5 0.25293C5.59645 0.25293 0 5.84938 0 12.7529C0 19.6565 5.59645 25.2529 12.5 25.2529ZM13.3577 6.75658C12.7287 6.77411 12.065 6.92553 11.5962 7.371C11.209 7.72915 11.0139 8.25043 10.97 8.7715C10.9567 9.1442 10.9586 9.51788 10.9605 9.89141C10.9619 10.1715 10.9634 10.4516 10.9584 10.7311C10.7862 10.7323 10.6135 10.732 10.4406 10.7316C10.2102 10.7311 9.97962 10.7307 9.75 10.734C9.75 10.957 9.75033 11.1804 9.75065 11.4039C9.7513 11.8517 9.75195 12.3003 9.75 12.7489C9.97962 12.7523 10.2102 12.7518 10.4407 12.7513C10.6135 12.7509 10.7862 12.7506 10.9584 12.7518C10.9622 13.641 10.9615 14.53 10.9608 15.4191C10.9599 16.5304 10.959 17.6417 10.9671 18.7529C11.4397 18.7496 11.9113 18.7501 12.3829 18.7506C12.7367 18.7509 13.0906 18.7513 13.4451 18.75C13.448 17.7498 13.4472 16.7504 13.4465 15.7509C13.4458 14.7515 13.4451 13.752 13.448 12.7518C13.6863 12.7506 13.9247 12.7509 14.163 12.7513C14.4808 12.7518 14.7986 12.7523 15.1164 12.7489C15.2154 12.0792 15.2998 11.4036 15.3463 10.7252C15.0319 10.7238 14.7175 10.7238 14.403 10.7238C14.0885 10.7238 13.7741 10.7238 13.4597 10.7223C13.4597 10.6051 13.4595 10.4879 13.4593 10.3707C13.4587 10.0191 13.4582 9.66758 13.4626 9.31596C13.5121 9.0451 13.7915 8.83836 14.0624 8.85588H15.3493C15.3522 8.15415 15.3522 7.45538 15.3493 6.75365C15.1834 6.75365 15.0174 6.75348 14.8515 6.7533C14.3536 6.75275 13.8557 6.7522 13.3577 6.75658Z" fill="#CE1A30"/>
</g>
<defs>
<clipPath id="clip0_4718_2825">
<rect width="25" height="25" fill="white" transform="translate(0 0.25293)"/>
</clipPath>
</defs>
</svg>
