<svg width="25" height="26" viewBox="0 0 25 26" fill="none" xmlns="http://www.w3.org/2000/svg">
<path fill-rule="evenodd" clip-rule="evenodd" d="M12.5 25.2529C19.4035 25.2529 25 19.6565 25 12.7529C25 5.84938 19.4035 0.25293 12.5 0.25293C5.59645 0.25293 0 5.84938 0 12.7529C0 19.6565 5.59645 25.2529 12.5 25.2529ZM6.25 10.1009C6.25 8.11688 7.86415 6.50293 9.84795 6.50293H15.1521C17.136 6.50293 18.75 8.11708 18.75 10.1009V15.4536C18.75 17.4374 17.136 19.0516 15.1521 19.0516H9.84795C7.86395 19.0516 6.25 17.4374 6.25 15.4536V10.1009ZM9.24708 12.7543C9.24708 10.9741 10.7109 9.52598 12.5099 9.52598C14.3089 9.52598 15.7728 10.9741 15.7728 12.7543C15.7728 14.5342 14.3089 15.9824 12.5099 15.9824C10.7107 15.9824 9.24708 14.5342 9.24708 12.7543ZM10.4355 12.7543C10.4355 13.8788 11.366 14.7939 12.5099 14.7939C13.6538 14.7939 14.5843 13.879 14.5843 12.7543C14.5843 11.6296 13.6536 10.7147 12.5099 10.7147C11.366 10.7147 10.4355 11.6296 10.4355 12.7543ZM15.8312 10.1618C16.2552 10.1618 16.5989 9.81808 16.5989 9.39408C16.5989 8.97011 16.2552 8.62638 15.8312 8.62638C15.4072 8.62638 15.0635 8.97011 15.0635 9.39408C15.0635 9.81808 15.4072 10.1618 15.8312 10.1618Z" fill="#CE1A30"/>
</svg>
