<svg width="25" height="26" viewBox="0 0 25 26" fill="none" xmlns="http://www.w3.org/2000/svg">
<path fill-rule="evenodd" clip-rule="evenodd" d="M12.5 25.2529C19.4035 25.2529 25 19.6565 25 12.7529C25 5.84938 19.4035 0.25293 12.5 0.25293C5.59645 0.25293 0 5.84938 0 12.7529C0 19.6565 5.59645 25.2529 12.5 25.2529ZM17.4407 7.50113C16.1543 6.21318 14.4435 5.5036 12.6208 5.50293C8.8654 5.50293 5.80865 8.55923 5.8073 12.316C5.80685 13.5169 6.12057 14.6891 6.7167 15.7222L5.75 19.2529L9.36193 18.3056C10.357 18.8485 11.4777 19.1345 12.6179 19.1349H12.6206C16.3757 19.1349 19.4325 16.0782 19.4341 12.3217C19.4352 10.5008 18.7272 8.78908 17.4407 7.50113ZM15.7271 13.7426C15.5569 13.6574 14.72 13.2456 14.5638 13.1888C14.4078 13.132 14.2942 13.1035 14.1807 13.2741C14.0673 13.4446 13.741 13.8279 13.6417 13.9416C13.5423 14.0552 13.443 14.0693 13.2729 13.9841C13.245 13.9701 13.2071 13.9537 13.1602 13.9334C12.9205 13.8294 12.4476 13.6243 11.9038 13.139C11.3977 12.6875 11.056 12.13 10.9566 11.9597C10.8573 11.7892 10.9459 11.6972 11.0312 11.6123C11.0823 11.5614 11.141 11.4899 11.1997 11.4184C11.2289 11.3828 11.2582 11.3471 11.2865 11.3141C11.3586 11.2298 11.39 11.1658 11.4326 11.0792C11.4402 11.0636 11.4482 11.0473 11.4568 11.0301C11.5136 10.9164 11.4852 10.8171 11.4427 10.7318C11.4143 10.6749 11.2529 10.2821 11.1066 9.926C11.0339 9.74893 10.9649 9.5809 10.9178 9.46773C10.7957 9.17468 10.6721 9.17543 10.5728 9.17603C10.5597 9.17613 10.5469 9.1762 10.5346 9.17558C10.4355 9.17058 10.3218 9.16968 10.2084 9.16968C10.0949 9.16968 9.91058 9.21218 9.75438 9.3827C9.74433 9.3937 9.73308 9.4057 9.72085 9.41875C9.54345 9.60815 9.1585 10.0191 9.1585 10.803C9.1585 11.6389 9.7655 12.4466 9.8531 12.5632L9.85375 12.564C9.85927 12.5714 9.86917 12.5857 9.88332 12.606C10.0865 12.8975 11.1654 14.4452 12.762 15.1347C13.1683 15.3102 13.4852 15.4148 13.7326 15.4932C14.1405 15.6228 14.5115 15.6046 14.805 15.5608C15.1322 15.5119 15.8122 15.149 15.954 14.7514C16.0959 14.3538 16.0959 14.0127 16.0534 13.9418C16.0191 13.8844 15.9386 13.8455 15.8194 13.7878C15.7908 13.774 15.76 13.7591 15.7271 13.7426Z" fill="#CE1A30"/>
</svg>
